<svg width="105" height="142" viewBox="0 0 105 142" fill="none" xmlns="http://www.w3.org/2000/svg">
<path d="M85.0908 10.4027C80.6228 13.2681 77.1402 15.6667 73.4908 17.7774C71.3668 19.0067 68.9055 20.3721 66.5935 16.6374C73.2108 11.4814 79.3082 5.87474 86.5575 1.80807C89.5642 0.122742 91.6882 0.904068 93.7335 3.76407C94.4735 4.79874 95.0308 5.98007 95.5695 7.1414C98.3548 13.1574 101.129 19.1774 103.857 25.2201C104.76 27.2174 105.607 29.4867 103.121 30.8601C100.889 32.0934 98.8588 30.9174 97.5615 29.0387C96.1135 26.9414 94.9828 24.6201 93.7842 22.3601C92.9255 20.7414 92.1802 19.0641 90.5775 17.6361C90.5775 18.4534 90.5815 19.2721 90.5775 20.0894C90.5308 29.0547 88.4188 32.2774 80.1468 35.6694C73.5148 38.3891 66.6202 39.6307 59.4348 39.0017C57.7295 38.8506 56.0215 38.6787 54.3122 38.6198C47.2855 38.3771 44.8895 41.1865 46.7668 48.0189C47.7228 51.4959 49.4108 54.7787 50.8295 58.1241C55.0948 68.1813 53.1455 74.1881 43.5162 79.4651C36.3148 83.4121 28.6082 85.8813 20.3322 86.3719C17.7775 86.5241 15.1735 86.6361 12.7042 87.2318C8.7455 88.1855 7.66949 90.1506 9.49749 93.8282C11.3908 97.635 13.9268 101.129 16.2642 104.707C17.9002 107.212 19.9162 109.495 21.3402 112.108C24.3228 117.58 24.7002 123.262 20.8202 128.441C17.8895 132.355 14.6175 136.065 11.1175 139.476C8.80416 141.732 5.7615 143.002 1.7175 140.953C2.83216 139.738 3.74016 138.763 4.63083 137.772C8.04683 133.975 11.6255 130.309 14.8202 126.333C17.9122 122.486 17.4055 118.341 14.6308 114.471C12.2628 111.167 9.60416 108.063 7.34416 104.691C5.32949 101.683 3.26682 98.5907 1.96016 95.2479C-0.853177 88.0495 2.50549 81.8255 10.0628 80.0678C13.5762 79.2522 17.2562 79.0293 20.8775 78.8198C28.0908 78.4027 34.7322 76.1495 40.9255 72.6293C46.0535 69.7146 46.6588 67.4907 44.5308 62.0558C42.8175 57.6839 40.6668 53.4241 39.5388 48.9069C38.8002 45.9522 38.9882 42.4881 39.7415 39.5001C41.0922 34.1507 45.0642 31.3454 50.5868 31.2547C53.5668 31.2054 56.5908 31.4361 59.5322 31.9201C66.3722 33.0467 72.6962 31.2894 78.9135 28.8187C81.8882 27.6374 83.7708 25.8054 83.7295 22.1081C83.6908 18.5801 84.5108 15.0414 85.0908 10.4027Z" fill="#231F20"/>
</svg>
