<svg width="95" height="88" viewBox="0 0 95 88" fill="none" xmlns="http://www.w3.org/2000/svg">
<path d="M46.9889 51.116C46.4636 51.9507 45.7476 52.752 45.3956 53.7053C43.4622 58.936 43.1596 64.2373 45.1489 69.5413C45.4369 70.308 45.9142 71.048 46.4596 71.64C47.0609 72.292 47.8529 72.244 48.3169 71.416C48.7582 70.628 49.1249 69.7587 49.3436 68.8734C49.6916 67.456 49.9569 66.0053 50.1369 64.552C50.5582 61.1733 50.9302 57.7827 49.8489 54.4467C49.3876 53.024 48.7742 51.7373 46.9889 51.116ZM41.0236 62.9814C40.9409 60.032 41.2436 57.104 42.3556 54.376C43.0116 52.7667 43.8396 51.172 44.8756 49.816C46.6316 47.516 49.4516 47.3734 51.3516 49.5454C52.3529 50.6907 53.0529 52.2307 53.5822 53.716C54.5542 56.4413 54.5196 59.352 54.2436 62.1933C53.9903 64.7947 53.5582 67.4053 52.8969 69.9213C52.4782 71.5107 51.6876 73.0946 50.7196 74.392C49.1849 76.448 47.1409 76.616 45.0676 75.18C43.7422 74.2627 42.8649 72.9653 42.3009 71.3987C41.3236 68.688 40.8902 65.892 41.0236 62.9814Z" fill="black" stroke="black" stroke-width="2"/>
<path d="M69.2121 19.4665C68.5054 19.8625 68.1441 19.9785 67.8934 20.2198C66.0028 22.0452 64.1428 23.9038 62.2534 25.7318C61.5294 26.4331 61.6574 27.2291 61.8894 28.0811C62.8401 31.5731 63.7668 35.0731 64.7374 38.5598C64.9094 39.1758 65.2468 39.7398 65.4734 40.2505C65.8854 40.1892 66.0855 40.2238 66.1641 40.1371C68.2401 37.8531 70.3348 35.5878 72.3335 33.2291C72.6295 32.8811 72.6081 32.0531 72.4801 31.5145C71.8748 28.9651 71.1934 26.4358 70.5121 23.9091C70.1361 22.5185 69.7054 21.1438 69.2121 19.4665ZM22.9588 21.1078C22.6855 21.4852 22.4828 21.6451 22.4361 21.8478C21.7081 24.9905 21.0134 28.1438 20.2814 31.2851C20.0588 32.2411 20.6054 32.6958 21.2028 33.1785C23.5201 35.0558 25.8188 36.9571 28.1454 38.8185C28.6908 39.2545 29.3214 39.5705 30.0201 40.0105C30.4268 39.2185 30.7668 38.7145 30.9601 38.1545C31.8615 35.5451 32.6801 32.9025 33.6148 30.3091C34.0881 28.9958 33.7948 28.1038 32.7201 27.3571C30.0961 25.5371 27.5094 23.6598 24.8708 21.8665C24.3001 21.4785 23.5735 21.3438 22.9588 21.1078ZM6.41611 25.6145C6.22144 25.7371 6.02809 25.8598 5.83476 25.9825C6.06276 26.8438 6.29345 27.7051 6.52011 28.5678C7.79078 33.4065 9.28945 38.1945 10.2868 43.0958C12.5174 54.0558 14.5068 65.0665 17.4428 75.8585C18.0014 77.9118 18.9308 78.8932 20.8868 79.4118C28.4494 81.4145 36.1548 82.1838 43.8961 82.3678C49.9548 82.5118 56.0294 82.2598 62.0868 81.9518C66.7108 81.7172 71.1468 80.3398 75.5081 78.7225C76.4734 78.3638 76.8694 77.7185 76.9281 76.6545C77.0001 75.3465 77.1748 74.0425 77.3628 72.7452C78.6988 63.5692 80.2841 54.4478 82.7868 45.5332C84.7028 38.7132 86.6321 31.8985 88.5348 25.0745C88.7014 24.4772 88.7094 23.8292 88.8468 22.7945C88.1281 23.2265 87.7854 23.3558 87.5374 23.5931C86.2908 24.7891 85.1348 26.0998 83.8268 27.2105C79.7588 30.6625 76.1014 34.5452 72.6481 38.6665C71.0001 40.6332 69.2774 42.5439 67.4721 44.3492C65.6961 46.1225 63.7815 45.7598 62.5961 43.4931C62.1068 42.5598 61.8108 41.4985 61.5161 40.4665C59.6308 33.8798 57.8428 27.2598 55.8761 20.6998C54.5054 16.1252 52.8721 11.6385 50.3615 7.59046C49.8775 6.81046 49.2014 6.16382 48.5041 5.32249C48.0414 5.99182 47.7468 6.33446 47.5388 6.72913C44.2001 13.0985 41.1788 19.6278 38.8214 26.4785C37.2201 31.1318 35.6681 35.8025 34.1454 40.4838C32.6894 44.9612 30.3188 45.7839 26.7295 42.7825C24.2628 40.7199 21.8468 38.5745 19.2761 36.6665C15.4348 33.8132 11.7281 30.8118 8.40143 27.2985C7.80543 26.6678 7.08144 26.1718 6.41611 25.6145ZM17.3615 30.2705C17.9628 26.8651 18.4574 24.0718 18.9481 21.2785C19.0014 20.9745 19.0188 20.6625 19.0868 20.3625C19.8441 17.0251 21.6001 15.8598 24.5894 17.3105C27.4934 18.7212 30.1614 20.6772 32.9254 22.4078C33.6708 22.8745 34.3855 23.3958 35.3628 24.0625C35.7788 23.2705 36.1414 22.6505 36.4414 21.9958C39.0614 16.2931 41.6641 10.5811 44.2921 4.88115C44.6428 4.11981 45.0534 3.37313 45.5348 2.69847C46.9854 0.655799 49.0481 0.435812 50.8361 2.14515C53.2281 4.43181 54.6654 7.42649 55.9468 10.4585C57.2574 13.5598 58.2921 16.7918 59.4508 19.9651C59.7321 20.7318 60.0295 21.4918 60.4628 22.6358C61.3001 21.8625 61.9001 21.3625 62.4414 20.7985C63.7974 19.3878 65.0948 17.9118 66.4801 16.5358C67.1108 15.9105 67.8454 15.3465 68.6214 14.9492C69.9521 14.2678 71.0481 14.5891 71.8761 15.8785C72.3201 16.5691 72.6521 17.3772 72.8801 18.1798C73.6801 20.9932 74.4041 23.8318 75.1788 26.6532C75.3734 27.3638 75.6494 28.0492 75.9814 29.0198C76.7374 28.4438 77.2854 28.0931 77.7628 27.6545C80.3041 25.3211 82.8108 22.9478 85.3628 20.6278C86.5814 19.5198 87.8374 18.4505 89.1414 17.4585C90.0321 16.7798 91.0348 16.1332 92.1588 16.9865C93.2654 17.8265 93.3948 18.9891 93.0561 20.3011C92.3068 23.2105 91.6548 26.1505 90.8294 29.0345C89.0708 35.1785 87.0148 41.2358 85.4708 47.4371C83.4814 55.4291 81.8668 63.5265 80.1108 71.5825C79.4708 74.5185 78.8881 77.4665 78.2814 80.4105C78.0561 81.5038 77.3641 82.1558 76.4268 82.5238C72.5828 84.0345 68.6761 85.3571 64.5814 85.7705C60.4374 86.1891 56.2748 86.6172 52.1188 86.6332C47.4508 86.6518 42.7774 86.2425 38.1094 85.9678C33.1374 85.6745 28.2308 84.8718 23.4295 83.4678C21.7455 82.9758 20.0908 82.3238 18.4841 81.5958C16.4601 80.6785 14.8881 79.2025 14.2374 76.8785C13.0161 72.5092 11.6215 68.1785 10.6668 63.7425C9.06013 56.2825 7.91744 48.7105 6.2441 41.2692C4.9441 35.4865 3.11879 29.8371 1.56012 24.1185C1.28012 23.0891 1.00946 22.0118 1.00013 20.9545C0.985459 19.3238 2.25611 18.4438 3.71344 19.0145C4.45477 19.3051 5.17478 19.7625 5.78811 20.2945C8.67078 22.7945 11.5068 25.3558 14.3748 27.8731C15.1948 28.5931 16.0721 29.2398 17.3615 30.2705Z" fill="black" stroke="black" stroke-width="2"/>
</svg>
