<svg width="240" height="324" viewBox="0 0 240 324" fill="none" xmlns="http://www.w3.org/2000/svg">
<path fill-rule="evenodd" clip-rule="evenodd" d="M99.0001 115.048C98.9872 113.664 100.299 112.81 101.59 113.036C102.457 113.187 103.18 113.705 103.859 114.24L104.19 114.502C105.017 115.151 105.967 115.851 106.46 116.771C107.182 118.128 105.655 119.954 104.229 119.002C103.251 118.347 102.624 117.296 101.982 116.32L101.916 116.219C101.624 115.781 101.368 115.316 100.969 114.966L100.883 114.89C100.751 114.778 100.61 114.676 100.441 114.627C100.114 114.533 99.5077 114.665 99.3634 115.055L99.3506 115.095C99.2978 115.291 99.0022 115.249 99.0001 115.048Z" fill="#231F20"/>
<path fill-rule="evenodd" clip-rule="evenodd" d="M198.116 286.313C202.198 286.116 200.556 278.971 200.263 276.347C197.031 266.764 197.791 256.308 196.519 246.263C195.727 236.886 194.709 227.538 193.853 218.168C192.172 199.148 180.099 160.427 166.321 154.2C164.585 146.582 157.417 139.47 148.347 139.47C142.161 132.145 134.716 126.99 125.166 128.031C121.219 128.21 117.392 132.398 113.61 133.206C111.493 133.498 92.7029 132.747 88.939 134.983C86.3171 136.33 83.9503 138.818 84.7212 141.987C85.9512 145.825 82.1287 141.672 74.1549 145.769C57.895 155.538 67.6112 168.607 68.0418 169.012C57.895 183.135 49.0263 194.593 44.9228 211.855C42.2634 224.671 42.5628 237.902 40.3345 250.784C39.5478 255.25 38.3408 259.564 37.0347 263.902C35.6192 269.578 34.931 283.727 34.1508 283.853C32.7296 284.206 34.9721 287.126 36.478 287.128C78.2296 294.056 120.639 287.415 162.615 286.33C174.444 285.918 186.287 285.824 198.116 286.313Z" fill="white"/>
<path fill-rule="evenodd" clip-rule="evenodd" d="M134.835 170.259C134.854 170.067 135.112 170.068 135.132 170.259L135.427 173.105C135.785 176.582 136.13 180.052 136.381 183.545C136.693 187.901 136.902 192.255 137.002 196.621C137.353 211.825 137.423 227.037 137.452 242.244C139.508 242.102 141.564 241.965 143.621 241.832C145.017 241.742 146.412 241.655 147.808 241.57L151.368 241.354L152.833 241.264C153.823 241.203 154.948 240.954 155.641 241.831C155.918 242.182 156.057 242.639 155.798 243.056C155.202 244.018 154.287 243.984 153.252 244.026C152.275 244.065 151.298 244.104 150.321 244.142C148.227 244.223 146.134 244.3 144.04 244.359C141.842 244.42 139.646 244.47 137.449 244.508C137.427 250.928 137.161 257.34 136.874 263.753L136.744 266.639C136.393 274.443 136.015 282.254 135.478 290.048C135.434 290.686 134.532 290.685 134.488 290.048C133.883 281.271 133.484 272.475 133.089 263.686C132.802 257.314 132.635 250.94 132.556 244.565C132.265 244.566 131.975 244.57 131.685 244.572C123.44 244.607 115.197 244.643 106.951 244.566C106.965 244.582 106.979 244.599 106.988 244.62C107.584 246.029 107.641 247.827 107.627 249.34C107.61 251.074 107.376 252.787 106.977 254.474C105.547 260.516 101.857 265.928 97.654 270.402L97.5168 270.547C96.5255 271.595 95.3883 272.648 94.7796 273.983C94.1579 275.345 93.9421 276.939 93.6353 278.404L93.5995 278.572L92.3999 284.115C92.0188 285.876 91.9106 288.443 90.5175 289.713C89.2178 290.899 87.496 290.28 86.8843 288.754C86.4067 287.563 86.8824 286.255 87.1653 285.064L89.3818 275.744C89.7459 274.224 90.1439 272.694 90.9299 271.328C91.735 269.93 92.9154 268.916 94.1198 267.879C96.4005 265.915 98.4941 263.666 100.265 261.231C102.035 258.797 103.547 256.114 104.608 253.293C105.139 251.881 105.575 250.414 105.875 248.935C106.16 247.531 106.158 246.077 106.463 244.689C106.484 244.593 106.565 244.527 106.658 244.498C106.636 244.436 106.669 244.352 106.756 244.347L113.499 243.913C119.493 243.527 125.487 243.13 131.475 242.677L132.534 242.6C132.451 234.094 132.521 225.587 132.675 217.078C132.815 209.275 132.818 201.47 133.05 193.668C133.166 189.796 133.414 185.933 133.691 182.069C133.974 178.117 134.427 174.199 134.835 170.259ZM71.5195 215.501C71.4476 215.068 71.9925 214.8 72.2437 215.196C75.115 219.724 76.4995 224.641 77.083 229.94C77.5985 234.616 77.4466 239.359 77.1899 244.048C76.9161 249.048 76.5966 254.048 76.2736 259.045L75.7773 266.71L74.5319 285.923C74.4428 287.298 74.1309 288.547 72.948 289.186C72.7983 289.311 72.6421 289.424 72.4602 289.521C71.8211 289.863 70.9735 289.69 70.604 289.034L70.7522 289.131C70.8812 289.213 70.7363 289.099 70.3173 288.791L69.9618 288.331C69.7034 287.943 69.5384 287.561 69.4721 287.099C69.369 286.381 69.5025 285.594 69.5494 284.873L70.3657 272.274C71.0006 262.479 71.7419 252.688 72.3007 242.888C72.561 238.321 72.7433 233.749 72.6199 229.174C72.497 224.624 72.2652 219.997 71.5195 215.501ZM96.359 131.161L96.5183 131.134C102.221 130.186 108.423 130.364 113.635 133.114C113.678 133.137 113.659 133.208 113.61 133.206L111.933 133.139C106.622 132.931 101.327 132.808 96.1049 134.056L95.5703 134.185C93.6896 134.644 91.7257 135.206 90.2152 136.448C88.7714 137.636 88.0524 139.468 87.3611 141.155L87.2687 141.378C86.5673 143.044 85.6796 144.624 84.1423 145.665C82.1511 147.014 79.7564 146.849 77.4732 147.032C73.4532 147.356 70.1665 150.27 68.5313 153.837C67.5411 155.996 67.1187 158.417 67.0351 160.779C66.9922 161.981 66.9861 163.231 67.1462 164.425C67.1973 164.807 67.6693 166.198 67.9099 166.165C68.4447 166.091 68.9335 166.37 69.1002 166.797C70.4211 165.521 71.7799 164.281 73.1826 163.086C76.6788 160.107 80.4447 157.408 84.4106 155.088C87.4374 153.317 90.6301 151.563 93.9362 150.237C93.6742 150.231 93.4159 150.283 93.1659 150.413C93.0565 150.47 92.9477 150.333 93.0341 150.242C94.0754 149.146 95.3228 148.99 96.5802 149.282C96.8485 149.197 97.1171 149.114 97.3866 149.036C97.5208 148.997 97.5876 149.182 97.4781 149.253L97.1692 149.451C98.541 149.91 99.8878 150.814 100.954 151.527C104.017 153.575 106.713 156.078 109.446 158.535L109.943 158.98C112.349 161.129 114.815 163.217 117.549 164.941C118.979 165.843 120.482 166.678 122.058 167.298C123.41 167.831 125.611 168.167 126.245 169.596C126.807 170.28 126.572 171.153 125.913 171.613C124.801 172.837 122.578 172.046 121.253 171.537C119.656 170.922 118.109 170.183 116.633 169.317C113.769 167.635 111.127 165.543 108.667 163.318C106.097 160.994 103.674 158.525 101.174 156.128C100.091 155.089 99.0334 154.027 97.9489 152.99L97.4042 152.473C96.8507 151.954 96.062 151.145 95.2188 150.655C93.6303 151.603 92.0173 152.511 90.4431 153.484C88.2457 154.841 86.113 156.296 84.0132 157.799C79.9708 160.693 76.1401 163.934 72.5838 167.408C66.0616 173.778 60.5048 181.053 55.6505 188.756L55.2819 189.343C52.5234 193.752 49.9148 198.303 48.0652 203.174C46.03 208.535 45.0402 214.173 44.5025 219.863C43.9689 225.513 43.7889 231.191 43.1925 236.836C42.5809 242.625 41.3758 248.286 40.0051 253.937L39.6782 255.277C38.4379 260.337 37.1578 265.398 36.5202 270.578C36.1799 273.345 35.9752 276.15 36.0214 278.939C36.0679 281.745 36.5086 284.488 36.8642 287.265C37.0004 288.328 35.9542 289.216 35.0181 289.357C33.9415 289.518 33.0166 288.831 32.6819 287.831C31.6387 284.712 31.4492 281.264 31.4819 277.99C31.5149 274.667 31.9389 271.365 32.5355 268.099C33.7089 261.674 35.5197 255.383 37.0345 249.035C38.3695 243.44 39.2654 237.836 39.7484 232.104C40.2497 226.157 40.5499 220.191 41.4645 214.287C42.3673 208.459 44.0659 202.892 46.6275 197.578C48.9599 192.739 51.8673 188.185 54.9155 183.77C58.6171 178.41 62.6826 173.309 67.2269 168.661C66.8187 168.644 66.3996 168.512 66.0147 168.272C64.8371 167.537 64.2886 166.099 64.12 164.787C63.7254 161.717 63.8206 158.511 64.6099 155.509C65.8833 150.667 69.1879 146.364 73.9773 144.619C75.2101 144.169 76.5206 144.005 77.8271 143.973C79.0668 143.942 80.4208 144.104 81.617 143.711C83.521 143.085 84.3371 140.841 85.052 139.141L85.0849 139.063C86.0016 136.896 87.1019 135.038 89.0874 133.685C91.2057 132.242 93.8598 131.585 96.359 131.161ZM150.549 139.731C152.262 139.136 154.405 139.676 156.081 140.195C157.948 140.774 159.674 141.841 161.153 143.108C162.714 144.443 164.003 146.093 164.915 147.935L165.002 148.113C165.834 149.822 166.782 152.168 166.362 154.046C166.35 154.099 166.336 154.151 166.321 154.2C169.721 155.875 172.861 157.972 175.596 160.631C178.78 163.726 181.477 167.248 183.758 171.053C192.82 186.166 194.415 204.317 195.486 221.552L195.752 225.922C196.334 235.359 197.014 244.773 198.78 254.08L198.909 254.751C200.798 264.495 203.501 274.313 203.227 284.309C203.145 287.304 198.721 287.283 198.592 284.309C198.109 273.113 195.498 262.303 193.729 251.283C190.617 231.893 192.177 211.904 187.767 192.708C186.037 185.175 183.357 177.868 179.529 171.144C177.639 167.822 175.475 164.613 172.942 161.747C170.761 159.281 168.496 156.908 165.948 154.835C165.134 155.651 163.507 155.235 163.082 154.046C162.79 153.229 162.875 152.273 162.688 151.417C162.514 150.622 162.274 149.835 161.955 149.087C161.318 147.596 160.383 146.164 159.304 144.957C158.139 143.652 156.799 142.569 155.3 141.674C153.791 140.773 152.14 140.504 150.549 139.845C150.495 139.823 150.49 139.751 150.549 139.731ZM157.207 243.355C157.21 243.276 157.302 243.239 157.359 243.292C157.96 243.845 158.323 244.638 158.766 245.319C159.276 246.103 159.811 246.872 160.373 247.62C161.498 249.12 162.75 250.534 164.013 251.919C165.187 253.207 166.439 254.44 167.737 255.603C169.144 256.863 170.72 257.988 171.998 259.383C174.664 262.294 175.095 266.291 175.658 270.043L175.72 270.449C176.063 272.675 176.37 274.908 176.647 277.144C176.782 278.232 176.916 279.32 177.026 280.411L177.06 280.756C177.158 281.823 177.184 282.906 176.571 283.839C175.915 284.837 174.424 285.187 173.537 284.23C172.014 282.586 172.3 279.667 172.101 277.552C171.938 275.804 171.752 274.057 171.544 272.313L171.438 271.442C171.193 269.458 170.994 267.435 170.541 265.485C170.141 263.769 169.379 262.473 168.128 261.23C166.869 259.977 165.56 258.808 164.397 257.459C163.164 256.028 162.052 254.494 161.05 252.892C160.192 251.523 159.505 250.032 158.876 248.544L158.771 248.296C158.163 246.844 157.159 244.954 157.207 243.355ZM179.203 180.997C179.216 180.795 179.515 180.791 179.519 180.997C179.557 182.739 179.594 184.48 179.63 186.222C179.92 200.256 179.741 214.323 181.149 228.309C181.813 234.903 183.035 241.401 184.449 247.871C185.173 251.182 185.932 254.485 186.654 257.796C187.357 261.023 188.111 264.266 188.669 267.523C189.217 270.724 189.708 273.95 189.928 277.192L189.955 277.615C190.05 279.186 190.503 281.496 189.638 282.888C188.702 284.396 186.908 284.423 185.904 282.984C184.962 281.632 185.196 279.228 185.03 277.615C184.861 275.973 184.682 274.328 184.478 272.689C184.082 269.492 183.559 266.302 183.016 263.127C181.884 256.514 180.243 249.985 179.031 243.383C177.789 236.618 176.907 229.804 176.869 222.916C176.832 215.97 177.567 209.037 177.938 202.106C178.315 195.066 178.744 188.032 179.203 180.997ZM112.932 137.346C113.309 136.077 114.638 135.284 115.935 135.64C117.123 135.967 118.104 137.41 117.64 138.645C117.133 139.992 116.247 141.14 115.5 142.365C114.81 143.496 113.803 144.387 113.1 145.498L113.875 146.334C114.262 146.75 114.651 147.165 115.044 147.572L116.395 148.972C117.447 150.059 118.506 151.142 119.594 152.192C122.796 155.281 126.047 158.268 129.632 160.913C130.448 161.515 131.271 162.114 132.116 162.674L132.432 162.883C133.012 163.263 133.659 163.637 134.36 163.572C136.062 163.416 137.601 161.607 138.771 160.481L138.832 160.423C141.732 157.662 144.417 154.645 146.764 151.4C147.285 150.679 147.79 149.946 148.282 149.204C147.147 147.878 147.418 145.289 147.355 143.681C147.311 142.55 147.308 141.419 147.302 140.287L147.298 140.059C147.285 139.326 147.252 138.624 147.727 138.021C147.754 137.986 147.812 137.987 147.847 138.005C148.498 138.347 148.698 138.918 148.976 139.559L149.005 139.625C149.343 140.394 149.667 141.171 149.994 141.944C150.337 142.754 150.652 143.576 150.97 144.395C151.118 144.777 151.26 145.159 151.398 145.544C151.483 145.79 151.57 146.035 151.66 146.279L151.681 146.298C151.799 146.398 151.899 146.504 151.986 146.614C152.349 146.795 152.638 147.126 152.773 147.613C153.068 148.672 152.458 149.536 151.914 150.376C149.704 153.792 147.185 157.046 144.385 159.999C142.994 161.465 141.531 162.866 140.007 164.195L139.741 164.426C138.373 165.602 136.887 166.716 135.06 166.992C132.921 167.313 131.181 166.249 129.543 165.024L129.38 164.901C127.828 163.726 126.307 162.509 124.834 161.236C121.83 158.642 118.972 155.856 116.436 152.8C113.969 149.827 111.53 146.503 110.009 142.926C109.917 142.708 110.16 142.48 110.351 142.662C111.094 143.369 111.809 144.115 112.515 144.87C112.535 143.758 112.33 142.637 112.444 141.518C112.583 140.158 112.543 138.656 112.932 137.346Z" fill="black"/>
<path fill-rule="evenodd" clip-rule="evenodd" d="M143.152 128.274C141.732 127.695 140.465 126.728 139.538 125.493C139.216 125.063 139.133 124.61 139.2 124.195C139.276 123.729 139.552 123.306 139.928 123.023C140.305 122.739 140.777 122.598 141.233 122.67C141.63 122.732 142.024 122.949 142.337 123.399L142.402 123.489C142.953 124.235 143.67 124.846 144.488 125.241C145.276 125.621 146.158 125.798 147.07 125.695C148.808 125.499 150.005 124.559 151.278 123.282C151.436 123.121 151.594 122.955 151.752 122.786C151.852 122.633 151.991 122.534 152.146 122.483C152.317 122.425 152.511 122.429 152.689 122.491C152.86 122.55 153.013 122.664 153.116 122.815C153.213 122.958 153.269 123.135 153.251 123.339C153.134 124.661 152.443 125.842 151.461 126.769C150.37 127.799 148.924 128.511 147.563 128.761C146.064 129.036 144.536 128.839 143.152 128.274ZM148.271 107.866C149.866 108.836 152.297 111.098 150.581 113.503C148.56 115.624 145.652 113.193 144.219 112.093C142.89 111.241 141.396 113.433 142.629 114.428C152.987 122.099 157.19 108.12 149.078 106.726C148.184 106.572 147.853 107.566 148.271 107.866ZM129.711 98.9429C129.887 96.7541 133.219 96.257 133.551 98.423C133.847 100.363 133.498 102.145 132.624 103.892C131.79 105.561 129.692 104.783 129.533 103.263C129.32 101.226 129.601 100.304 129.711 98.9429ZM155.076 97.9739C155.541 97.3652 156.212 96.9497 157.015 97.1845C159.526 97.9185 158.786 101.485 157.904 103.22C157.425 104.163 155.876 104.402 155.176 103.572C154.036 102.219 153.489 99.5157 154.94 98.1825C154.979 98.1136 155.023 98.044 155.076 97.9739ZM132.589 89.3654L132.986 89.2959C134.213 89.0836 135.738 88.8796 136.606 89.8665C137.067 90.3898 137.225 91.3624 136.606 91.8633C135.518 92.7446 134.314 92.4031 133.01 92.4777C131.935 92.5394 130.902 92.7174 129.867 93.0135C127.595 93.663 125.744 94.8486 123.804 96.1505C123.55 96.3213 123.29 95.9956 123.411 95.7574C124.531 93.563 126.701 91.7604 128.875 90.6616C130.036 90.0751 131.305 89.5885 132.589 89.3654ZM152.787 88.3823L153.091 88.4445C156.395 89.1353 160.687 90.5153 162.251 93.7615C162.311 94.2205 162.248 94.3189 162.197 94.3832L162.18 94.4046C162.137 94.4595 162.104 94.5351 161.905 94.5976C161.85 94.5844 161.794 94.5705 161.737 94.5557C161.02 94.3677 160.453 94.1087 159.904 93.84L159.308 93.5465C158.617 93.2076 157.92 92.881 157.181 92.6399C155.605 92.1255 153.983 91.7631 152.337 91.5696C151.98 91.5277 151.636 91.4072 151.365 91.2006C151.108 91.0046 150.911 90.7332 150.821 90.3724C150.705 89.9056 150.739 89.5521 150.989 89.1309C151.177 88.8146 151.447 88.5953 151.756 88.4694C152.071 88.3411 152.43 88.3108 152.787 88.3823Z" fill="black"/>
<path fill-rule="evenodd" clip-rule="evenodd" d="M152.746 131.526C150.778 129.772 148.573 126.247 145.746 129.036C145.047 129.824 144.764 131.591 143.695 131.938C142.275 132.398 140.868 130.896 140.384 129.742C138.405 123.33 146.588 121.571 151.25 122.607C153.527 123.543 155.205 127.309 155.306 129.275C155.372 130.596 154.254 132.538 152.746 131.526ZM167.589 121.643C167.57 121.558 167.543 121.481 167.511 121.411C166.641 121.082 165.952 121.417 165.527 122.044C165.541 122.2 165.587 122.358 165.616 122.512C165.288 123.204 164.992 124.06 164.547 124.658C164.459 124.665 164.368 124.656 164.281 124.63C156.905 125.401 160.506 117.681 153.024 115.763C147.241 114.809 136.789 115.902 134.061 121.923C131.91 131.542 120.97 124.84 117.378 119.838C113.545 115.285 111.067 109.723 108.677 104.325C108.172 103.182 106.597 103.999 106.768 105.095C104.559 109.528 104.633 114.851 104.086 119.707C103.155 129.394 102.249 142.979 111.246 148.894C122.969 162.15 152.242 166.827 165.762 154.648C170.443 144.581 169.866 132.301 167.589 121.643Z" fill="black"/>
<path fill-rule="evenodd" clip-rule="evenodd" d="M127.524 57.3289C135.098 56.5617 142.52 57.2064 149.984 58.5402C150.554 58.6435 150.877 59.0178 150.998 59.4678C154.513 59.6284 158.033 59.8865 161.544 60.0788C162.818 60.1486 163.541 61.408 162.96 62.5453C162.844 62.7712 162.723 62.991 162.6 63.2108L162.754 63.16C163.811 62.8211 164.952 62.6539 165.981 63.192C167.291 63.8768 167.804 65.3877 167.515 66.7784C167.441 67.1335 167.316 67.4738 167.175 67.8058C167.462 67.7868 167.751 67.7931 168.039 67.8311C169.568 68.034 170.705 69.207 170.785 70.7689C170.903 73.1274 169.384 75.5201 167.595 77.2085C167.855 77.7435 167.954 78.3733 167.846 79.0116C167.631 80.2733 166.702 81.0289 165.624 81.5218C166.074 82.9486 166.286 84.4403 166.161 85.9648C166.119 86.4737 165.674 86.8941 165.204 86.9972C166.955 91.819 167.841 96.9958 168.478 102.04C168.932 105.629 169.156 109.239 169.184 112.855C169.197 114.487 169.17 116.122 169.101 117.755L169.074 118.367C168.989 120.132 168.985 121.985 168.668 123.731C169.75 125.572 170.185 127.857 170.369 129.919C170.597 132.472 170.236 135.106 169.431 137.534C166.393 146.711 157.224 152.502 148.014 154.007C139.49 155.4 129.626 153.525 124.644 145.779C124.566 145.656 124.733 145.555 124.83 145.636C128.394 148.535 132.529 149.829 137.02 150.458C144.787 151.545 153.516 149.702 159.748 144.815C162.74 142.469 164.897 139.054 165.846 135.378C166.329 133.5 166.496 131.54 166.306 129.607C166.112 127.645 165.244 125.971 164.696 124.118C164.513 123.492 164.707 122.911 165.089 122.497C165.197 120.992 165.451 119.474 165.548 117.974C165.655 116.268 165.721 114.563 165.744 112.855C165.789 109.313 165.641 105.764 165.343 102.237C164.798 95.7778 163.351 89.4755 162.501 83.0714C162.187 83.3535 161.736 83.4694 161.264 83.2229L161.215 83.1961L160.957 83.0484C160.942 83.0484 160.925 83.0505 160.91 83.0524C159.146 83.2238 157.317 82.9786 155.627 82.4521C153.858 81.9028 152.217 81.0574 150.75 79.9309C150.472 81.3447 150.355 82.7734 150.353 84.2148C150.351 85.1152 149.399 85.5825 148.642 85.1978C145.289 83.4941 142.087 81.5309 139.046 79.3244C138.691 81.1441 138.337 82.9636 137.979 84.7855C137.842 85.4873 136.948 85.7706 136.376 85.4366C134.099 84.1112 132.132 82.3763 130.53 80.3133C130.21 80.9249 129.89 81.5365 129.567 82.1467L129.081 83.0608C128.601 83.9591 127.959 84.9526 126.909 85.2399C125.798 85.5442 124.87 84.8237 124.496 83.8175C124.382 83.5049 124.277 83.1834 124.179 82.8601C123.233 85.0224 122.164 87.1359 120.956 89.1522C119.143 92.1764 116.967 94.8711 114.797 97.6356C114.138 98.4748 113.01 97.6736 112.919 96.858C112.866 96.3782 112.822 95.8964 112.784 95.4164C111.519 97.9686 110.2 100.497 108.763 102.952L108.969 103.759C109.562 106.142 110.054 108.543 110.589 110.939C110.762 111.712 110.352 112.818 109.449 112.949C108.37 113.107 107.349 113.658 106.244 113.279C105.039 112.865 104.801 111.823 104.233 110.836C104.119 110.639 103.987 110.458 103.845 110.287L103.809 110.333C103.72 110.45 103.509 110.323 103.562 110.19L103.624 110.036C103.135 109.517 102.55 109.084 102.013 108.619C100.735 108.403 99.2977 108.639 98.4173 109.159C96.4124 110.342 95.4915 112.781 95.4725 115.024C95.4492 117.649 96.2624 120.599 97.6356 122.844C98.2401 123.831 99.0682 124.722 100.162 125.16C101.249 125.595 102.425 125.46 103.53 125.87C104.261 126.143 104.711 126.954 104.27 127.69C104.24 127.74 104.206 127.787 104.174 127.836L104.503 128.272C104.729 128.574 104.965 128.898 105.184 129.235C105.746 129.881 106.338 130.505 106.91 131.141C107.969 132.314 108.996 133.519 110.037 134.709C111.02 135.831 112.059 136.885 113.13 137.923C114.142 138.906 115.406 139.732 116.335 140.781C117.239 141.804 117.484 143.589 115.997 144.181C114.351 144.838 112.894 143.299 111.787 142.273L111.74 142.23C109.709 140.361 107.876 138.225 106.419 135.873C104.977 136.855 102.89 136.949 101.454 135.967C100.698 135.45 100.118 134.581 99.8362 133.637C99.5704 133.696 99.3048 133.731 99.0458 133.727C98.9125 133.805 98.7788 133.88 98.6436 133.95C97.5722 134.508 96.2563 134.259 95.7661 133.073C95.3198 131.996 95.7797 130.773 96.1817 129.736L96.2647 129.522C96.4929 128.93 96.7443 128.286 97.057 127.679C96.1865 127.024 95.4427 126.21 94.8133 125.285C92.6985 122.167 91.6422 117.608 92.1091 113.889C92.3901 111.644 93.4441 109.319 95.1701 107.806L95.107 107.641C94.6232 106.413 94.1835 105.181 93.8985 103.883C93.5647 102.366 93.4018 100.793 93.2541 99.2484C92.9415 95.9851 93.026 92.6479 93.4422 89.3973C94.2239 83.2787 96.2055 77.2722 99.7232 72.1807C98.7258 70.9864 97.9358 69.5809 98.3476 67.9643C98.5358 67.2222 98.9645 66.5187 99.6112 66.0936C99.968 65.8592 100.393 65.8233 100.75 65.6289L100.857 65.5697C101.014 65.4782 100.894 65.4879 100.801 65.0625C100.431 63.363 100.737 61.721 102.607 61.1567C104.367 60.6262 106.032 61.7527 107.073 63.0948C109.799 61.1607 113.39 60.1486 116.549 59.2884C120.14 58.3138 123.824 57.7054 127.524 57.3289Z" fill="black"/>
<path fill-rule="evenodd" clip-rule="evenodd" d="M165.554 102.731C164.957 104.358 164.047 106.051 162.935 107.42C158.437 111.231 154.065 109.121 151.846 103.956C151.002 100.306 153.242 96.3737 155.614 93.6885C159.041 90.2525 164.634 92.0558 166.209 96.1403C166.305 96.6696 166.363 97.1975 166.391 97.7238C166.358 99.4338 166.152 100.895 165.554 102.52M122.312 99.4509C128.238 92.3988 139.326 92.0218 139.043 102.876C137.77 116.614 116.332 113.242 122.312 99.4509ZM167.418 93.568C167.21 93.2161 166.98 92.8756 166.728 92.5499C166.635 92.4945 166.582 92.0034 166.24 91.967C161.671 86.9244 153.644 89.7855 150.744 94.8101C150.214 95.4454 149.782 96.1892 149.464 96.975C146.606 96.4506 143.275 96.5525 140.617 97.6323C137.982 90.7482 130.003 90.1336 124.745 93.0749C121.475 94.6839 119.355 98.0535 116.174 99.9045C108.698 100.443 100.673 98.767 93.3319 100.643C87.5419 101.847 92.382 104.78 93.353 102.823C100.275 100.777 108.475 102.506 115.662 102.045C116.409 103.31 117.842 104.344 119.27 104.3C120.813 117.979 140.753 115.711 141.441 103.551C142.221 102.317 143.191 101.136 144.58 100.367C145.112 100.257 145.626 100.114 146.095 99.8924C146.897 99.7792 148.134 100.119 148.872 100.788C151.401 115.966 165.969 114.198 168.572 100.901C168.624 100.849 168.769 100.65 168.88 100.332C169.771 99.1536 171.952 98.7154 171.604 96.7256C171.293 94.7353 168.781 94.759 167.418 93.568Z" fill="black"/>
</svg>
